<mxfile host="app.diagrams.net" modified="2024-06-12T01:06:08.528Z" agent="Mozilla/5.0 (Windows NT 10.0; Win64; x64) AppleWebKit/537.36 (KHTML, like Gecko) Chrome/125.0.0.0 Safari/537.36" etag="unqYqV244NfUzFh0X9xj" version="24.4.13" type="device">
  <diagram name="Page-1" id="SU60sq1JpARpPboAShl4">
    <mxGraphModel dx="1035" dy="511" grid="1" gridSize="10" guides="1" tooltips="1" connect="1" arrows="1" fold="1" page="1" pageScale="1" pageWidth="1100" pageHeight="850" math="0" shadow="0">
      <root>
        <mxCell id="0" />
        <mxCell id="1" parent="0" />
        <mxCell id="pmOOVxwG420c-32HkS5u-2" value="&lt;font style=&quot;font-size: 15px;&quot;&gt;&lt;span style=&quot;font-size: 15px;&quot;&gt;&lt;br style=&quot;font-size: 15px;&quot;&gt;&lt;/span&gt;&lt;/font&gt;" style="rounded=0;whiteSpace=wrap;html=1;strokeWidth=2;container=0;fontStyle=0;fontFamily=Times New Roman;fontSize=15;" parent="1" vertex="1">
          <mxGeometry x="380" y="390" width="160" height="200" as="geometry" />
        </mxCell>
        <mxCell id="pmOOVxwG420c-32HkS5u-4" value="&lt;div style=&quot;text-align: center; font-size: 15px;&quot;&gt;&lt;b style=&quot;font-size: 15px;&quot;&gt;Step 3&lt;/b&gt;&lt;/div&gt;&lt;div style=&quot;text-align: center; font-size: 15px;&quot;&gt;&lt;span style=&quot;border-color: var(--border-color); color: rgb(0, 0, 0); font-style: normal; font-variant-ligatures: normal; font-variant-caps: normal; letter-spacing: normal; orphans: 2; text-indent: 0px; text-transform: none; widows: 2; word-spacing: 0px; -webkit-text-stroke-width: 0px; background-color: rgb(251, 251, 251); text-decoration-thickness: initial; text-decoration-style: initial; text-decoration-color: initial; font-size: 15px;&quot;&gt;Antipattern Detection&lt;br style=&quot;font-size: 15px;&quot;&gt;&lt;/span&gt;&lt;/div&gt;" style="text;whiteSpace=wrap;html=1;container=0;strokeWidth=2;fontStyle=0;fontFamily=Times New Roman;fontSize=15;" parent="1" vertex="1">
          <mxGeometry x="387" y="385" width="133" height="40" as="geometry" />
        </mxCell>
        <mxCell id="HHuTXF0BT0n3mswBOlXm-3" value="" style="endArrow=classic;html=1;rounded=0;strokeWidth=2;entryX=0;entryY=0.5;entryDx=0;entryDy=0;fontStyle=0;exitX=1;exitY=0.5;exitDx=0;exitDy=0;fontFamily=Times New Roman;fontSize=15;" parent="1" source="MPG2LtDlFFUvsX0TWPEw-2" target="SRh0s-oIHB4yDXquQM8V-11" edge="1">
          <mxGeometry width="50" height="50" relative="1" as="geometry">
            <mxPoint x="300" y="420" as="sourcePoint" />
            <mxPoint x="480" y="330" as="targetPoint" />
            <Array as="points">
              <mxPoint x="320" y="420" />
              <mxPoint x="320" y="310" />
            </Array>
          </mxGeometry>
        </mxCell>
        <mxCell id="HHuTXF0BT0n3mswBOlXm-4" value="" style="endArrow=classic;html=1;rounded=0;strokeWidth=2;fontStyle=0;fontFamily=Times New Roman;fontSize=15;" parent="1" target="pmOOVxwG420c-32HkS5u-2" edge="1">
          <mxGeometry width="50" height="50" relative="1" as="geometry">
            <mxPoint x="320" y="420" as="sourcePoint" />
            <mxPoint x="260" y="460" as="targetPoint" />
            <Array as="points">
              <mxPoint x="320" y="490" />
            </Array>
          </mxGeometry>
        </mxCell>
        <mxCell id="HHuTXF0BT0n3mswBOlXm-9" value="" style="endArrow=none;html=1;rounded=0;strokeWidth=2;fontStyle=0;exitX=1;exitY=0.5;exitDx=0;exitDy=0;fontFamily=Times New Roman;fontSize=15;" parent="1" source="pmOOVxwG420c-32HkS5u-2" edge="1">
          <mxGeometry width="50" height="50" relative="1" as="geometry">
            <mxPoint x="560" y="477" as="sourcePoint" />
            <mxPoint x="640" y="360" as="targetPoint" />
            <Array as="points">
              <mxPoint x="640" y="490" />
            </Array>
          </mxGeometry>
        </mxCell>
        <mxCell id="HHuTXF0BT0n3mswBOlXm-26" value="&lt;font style=&quot;font-size: 15px;&quot;&gt;&lt;span style=&quot;font-size: 15px;&quot;&gt;&lt;font style=&quot;font-size: 15px;&quot;&gt;Heuristics&lt;/font&gt;&lt;br style=&quot;font-size: 15px;&quot;&gt;&lt;/span&gt;&lt;/font&gt;" style="rounded=0;whiteSpace=wrap;html=1;strokeWidth=2;container=0;fontStyle=0;fontFamily=Times New Roman;fontSize=15;" parent="1" vertex="1">
          <mxGeometry x="160" y="520" width="110" height="40" as="geometry" />
        </mxCell>
        <mxCell id="SRh0s-oIHB4yDXquQM8V-11" value="&lt;span style=&quot;border-color: var(--border-color); font-size: 15px;&quot;&gt;&lt;b style=&quot;font-size: 15px;&quot;&gt;Step 4&lt;/b&gt;&lt;/span&gt;&lt;font style=&quot;font-size: 15px;&quot;&gt;&lt;span style=&quot;font-size: 15px;&quot;&gt;&lt;br style=&quot;font-size: 15px;&quot;&gt;&lt;/span&gt;&lt;/font&gt;&lt;div style=&quot;font-size: 15px;&quot;&gt;&lt;span style=&quot;border-color: var(--border-color); font-size: 15px;&quot;&gt;Ground Truth&lt;/span&gt;&lt;/div&gt;&lt;div style=&quot;font-size: 15px;&quot;&gt;&lt;span style=&quot;border-color: var(--border-color); font-size: 15px;&quot;&gt;Definition&lt;/span&gt;&lt;/div&gt;" style="rounded=0;whiteSpace=wrap;html=1;strokeWidth=2;container=0;fontStyle=0;fontFamily=Times New Roman;fontSize=15;" parent="1" vertex="1">
          <mxGeometry x="360" y="280" width="144.12" height="60" as="geometry" />
        </mxCell>
        <mxCell id="pmOOVxwG420c-32HkS5u-1" value="&lt;font style=&quot;font-size: 15px;&quot;&gt;&lt;span style=&quot;font-size: 15px;&quot;&gt;&lt;b style=&quot;font-size: 15px;&quot;&gt;Step 1&lt;/b&gt;&lt;/span&gt;&lt;/font&gt;&lt;div style=&quot;font-size: 15px;&quot;&gt;&lt;font style=&quot;font-size: 15px;&quot;&gt;&lt;span style=&quot;font-size: 15px;&quot;&gt;Data&amp;nbsp;&lt;/span&gt;&lt;/font&gt;&lt;span style=&quot;font-size: 15px; background-color: initial;&quot;&gt;Collection&lt;/span&gt;&lt;/div&gt;" style="rounded=0;whiteSpace=wrap;html=1;strokeWidth=2;container=0;fontStyle=0;fontFamily=Times New Roman;fontSize=15;" parent="1" vertex="1">
          <mxGeometry x="10" y="390" width="100" height="60" as="geometry" />
        </mxCell>
        <mxCell id="MPG2LtDlFFUvsX0TWPEw-3" value="" style="endArrow=classic;html=1;rounded=0;strokeWidth=2;entryX=0;entryY=0.5;entryDx=0;entryDy=0;fontStyle=0;exitX=1;exitY=0.5;exitDx=0;exitDy=0;fontFamily=Times New Roman;fontSize=15;" edge="1" parent="1" source="pmOOVxwG420c-32HkS5u-1" target="MPG2LtDlFFUvsX0TWPEw-2">
          <mxGeometry width="50" height="50" relative="1" as="geometry">
            <mxPoint x="120" y="420" as="sourcePoint" />
            <mxPoint x="580" y="330" as="targetPoint" />
            <Array as="points" />
          </mxGeometry>
        </mxCell>
        <mxCell id="MPG2LtDlFFUvsX0TWPEw-2" value="&lt;font style=&quot;font-size: 16px;&quot;&gt;&lt;b style=&quot;&quot;&gt;Step 2&lt;/b&gt;&lt;/font&gt;&lt;div style=&quot;font-size: 16px;&quot;&gt;&lt;font style=&quot;font-size: 16px;&quot;&gt;Pre-processing&lt;/font&gt;&lt;/div&gt;" style="rounded=0;whiteSpace=wrap;html=1;strokeWidth=2;container=0;fontStyle=0;fontFamily=Times New Roman;fontSize=15;" vertex="1" parent="1">
          <mxGeometry x="190" y="390" width="110" height="60" as="geometry" />
        </mxCell>
        <mxCell id="MPG2LtDlFFUvsX0TWPEw-4" value="Analysis" style="rounded=0;whiteSpace=wrap;html=1;strokeWidth=2;verticalAlign=top;fontFamily=Times New Roman;fontSize=15;" vertex="1" parent="1">
          <mxGeometry x="400" y="435" width="120" height="145" as="geometry" />
        </mxCell>
        <mxCell id="ErhxkkcFe3KiioCIOO-B-2" value="&lt;div style=&quot;font-size: 15px;&quot;&gt;&lt;font style=&quot;font-size: 15px;&quot;&gt;&lt;span style=&quot;font-size: 15px;&quot;&gt;Semantic Analysis&lt;/span&gt;&lt;/font&gt;&lt;/div&gt;" style="rounded=0;whiteSpace=wrap;html=1;strokeWidth=2;container=0;fontStyle=0;fontFamily=Times New Roman;fontSize=15;" parent="1" vertex="1">
          <mxGeometry x="416.63" y="462.5" width="91.75" height="47.5" as="geometry" />
        </mxCell>
        <mxCell id="MPG2LtDlFFUvsX0TWPEw-6" value="&lt;div style=&quot;font-size: 15px;&quot;&gt;&lt;font style=&quot;font-size: 15px;&quot;&gt;&lt;span style=&quot;font-size: 15px;&quot;&gt;Syntactic Analysis&lt;/span&gt;&lt;/font&gt;&lt;/div&gt;" style="rounded=0;whiteSpace=wrap;html=1;strokeWidth=2;container=0;fontStyle=0;fontFamily=Times New Roman;fontSize=15;" vertex="1" parent="1">
          <mxGeometry x="416.63" y="520" width="91.75" height="50" as="geometry" />
        </mxCell>
        <mxCell id="MPG2LtDlFFUvsX0TWPEw-8" value="" style="endArrow=classic;html=1;rounded=0;entryX=0.019;entryY=0.806;entryDx=0;entryDy=0;entryPerimeter=0;strokeWidth=2;fontFamily=Times New Roman;fontSize=15;" edge="1" parent="1">
          <mxGeometry width="50" height="50" relative="1" as="geometry">
            <mxPoint x="270" y="540" as="sourcePoint" />
            <mxPoint x="379.99999999999994" y="540.08" as="targetPoint" />
          </mxGeometry>
        </mxCell>
        <mxCell id="MPG2LtDlFFUvsX0TWPEw-9" value="&lt;b style=&quot;font-size: 15px;&quot;&gt;&lt;font style=&quot;font-size: 15px;&quot;&gt;Step 5&lt;/font&gt;&lt;/b&gt;&lt;div style=&quot;font-size: 15px;&quot;&gt;&lt;div style=&quot;font-size: 15px;&quot;&gt;&lt;font style=&quot;font-size: 15px;&quot;&gt;Deliberation&lt;/font&gt;&lt;/div&gt;&lt;div style=&quot;font-weight: bold; font-size: 15px;&quot;&gt;&lt;br style=&quot;font-size: 15px;&quot;&gt;&lt;/div&gt;&lt;/div&gt;" style="rounded=0;whiteSpace=wrap;html=1;verticalAlign=top;fontFamily=Times New Roman;dashed=1;strokeWidth=2;fontSize=15;" vertex="1" parent="1">
          <mxGeometry x="680" y="220" width="380" height="370" as="geometry" />
        </mxCell>
        <mxCell id="MPG2LtDlFFUvsX0TWPEw-13" value="" style="edgeStyle=orthogonalEdgeStyle;rounded=0;orthogonalLoop=1;jettySize=auto;html=1;strokeWidth=2;fontFamily=Times New Roman;" edge="1" parent="1" source="HHuTXF0BT0n3mswBOlXm-6" target="HHuTXF0BT0n3mswBOlXm-10">
          <mxGeometry relative="1" as="geometry">
            <Array as="points">
              <mxPoint x="900" y="360" />
              <mxPoint x="900" y="400" />
            </Array>
          </mxGeometry>
        </mxCell>
        <mxCell id="HHuTXF0BT0n3mswBOlXm-6" value="&lt;font style=&quot;font-size: 15px;&quot;&gt;&lt;span style=&quot;font-size: 15px;&quot;&gt;Measure Performance&lt;/span&gt;&lt;/font&gt;" style="rounded=0;whiteSpace=wrap;html=1;strokeWidth=2;container=0;fontStyle=0;fontFamily=Times New Roman;fontSize=15;" parent="1" vertex="1">
          <mxGeometry x="690" y="330" width="120" height="60" as="geometry" />
        </mxCell>
        <mxCell id="HHuTXF0BT0n3mswBOlXm-10" value="&lt;font style=&quot;font-size: 15px;&quot;&gt;&lt;span style=&quot;font-size: 15px;&quot;&gt;Answer Research Questions&lt;br style=&quot;font-size: 15px;&quot;&gt;&lt;/span&gt;&lt;/font&gt;" style="rounded=0;whiteSpace=wrap;html=1;strokeWidth=2;container=0;fontStyle=0;fontFamily=Times New Roman;fontSize=15;" parent="1" vertex="1">
          <mxGeometry x="930" y="370" width="120" height="60" as="geometry" />
        </mxCell>
        <mxCell id="MPG2LtDlFFUvsX0TWPEw-10" value="Synthesis of Findings" style="rounded=0;whiteSpace=wrap;html=1;strokeWidth=2;container=0;fontStyle=0;fontFamily=Times New Roman;fontSize=15;" vertex="1" parent="1">
          <mxGeometry x="690" y="420" width="120" height="60" as="geometry" />
        </mxCell>
        <mxCell id="MPG2LtDlFFUvsX0TWPEw-11" value="" style="endArrow=classic;html=1;rounded=0;entryX=0;entryY=0.5;entryDx=0;entryDy=0;strokeWidth=2;fontFamily=Times New Roman;" edge="1" parent="1" target="MPG2LtDlFFUvsX0TWPEw-10">
          <mxGeometry width="50" height="50" relative="1" as="geometry">
            <mxPoint x="660" y="400" as="sourcePoint" />
            <mxPoint x="690" y="400" as="targetPoint" />
            <Array as="points">
              <mxPoint x="660" y="450" />
            </Array>
          </mxGeometry>
        </mxCell>
        <mxCell id="MPG2LtDlFFUvsX0TWPEw-12" value="" style="endArrow=classic;html=1;rounded=0;strokeWidth=2;entryX=0;entryY=0.5;entryDx=0;entryDy=0;fontFamily=Times New Roman;" edge="1" parent="1" target="HHuTXF0BT0n3mswBOlXm-10">
          <mxGeometry width="50" height="50" relative="1" as="geometry">
            <mxPoint x="810" y="445" as="sourcePoint" />
            <mxPoint x="860" y="395" as="targetPoint" />
            <Array as="points">
              <mxPoint x="900" y="445" />
              <mxPoint x="900" y="400" />
            </Array>
          </mxGeometry>
        </mxCell>
        <mxCell id="MPG2LtDlFFUvsX0TWPEw-14" value="API&lt;div style=&quot;font-size: 14px;&quot;&gt;Endpoints&lt;/div&gt;" style="text;html=1;align=center;verticalAlign=middle;resizable=0;points=[];autosize=1;strokeColor=none;fillColor=none;fontFamily=Times New Roman;fontSize=14;" vertex="1" parent="1">
          <mxGeometry x="110" y="370" width="80" height="50" as="geometry" />
        </mxCell>
        <mxCell id="MPG2LtDlFFUvsX0TWPEw-16" value="API Endpoints" style="text;html=1;align=center;verticalAlign=middle;resizable=0;points=[];autosize=1;strokeColor=none;fillColor=none;rotation=270;fontFamily=Times New Roman;fontSize=14;" vertex="1" parent="1">
          <mxGeometry x="282" y="400" width="110" height="30" as="geometry" />
        </mxCell>
        <mxCell id="MPG2LtDlFFUvsX0TWPEw-17" value="Ground Truths" style="text;html=1;align=center;verticalAlign=middle;resizable=0;points=[];autosize=1;strokeColor=none;fillColor=none;fontFamily=Times New Roman;fontSize=14;" vertex="1" parent="1">
          <mxGeometry x="515" y="278" width="110" height="30" as="geometry" />
        </mxCell>
        <mxCell id="MPG2LtDlFFUvsX0TWPEw-18" value="Detection Results" style="text;html=1;align=center;verticalAlign=middle;resizable=0;points=[];autosize=1;strokeColor=none;fillColor=none;fontFamily=Times New Roman;fontSize=14;" vertex="1" parent="1">
          <mxGeometry x="535" y="490" width="120" height="30" as="geometry" />
        </mxCell>
        <mxCell id="HHuTXF0BT0n3mswBOlXm-7" value="" style="endArrow=classic;html=1;rounded=0;entryX=0;entryY=0.5;entryDx=0;entryDy=0;exitX=1;exitY=0.5;exitDx=0;exitDy=0;strokeWidth=2;fontStyle=0;fontFamily=Times New Roman;fontSize=15;" parent="1" source="SRh0s-oIHB4yDXquQM8V-11" target="HHuTXF0BT0n3mswBOlXm-6" edge="1">
          <mxGeometry width="50" height="50" relative="1" as="geometry">
            <mxPoint x="635" y="330" as="sourcePoint" />
            <mxPoint x="530" y="350" as="targetPoint" />
            <Array as="points">
              <mxPoint x="640" y="310" />
              <mxPoint x="640" y="400" />
              <mxPoint x="660" y="400" />
              <mxPoint x="660" y="360" />
            </Array>
          </mxGeometry>
        </mxCell>
        <mxCell id="HHuTXF0BT0n3mswBOlXm-41" value="Detection&lt;div style=&quot;font-size: 14px;&quot;&gt;Performance&lt;/div&gt;" style="text;html=1;align=center;verticalAlign=middle;resizable=0;points=[];autosize=1;strokeColor=none;fillColor=none;container=0;strokeWidth=2;fontStyle=0;fontFamily=Times New Roman;fontSize=14;rotation=270;" parent="1" vertex="1">
          <mxGeometry x="830" y="375" width="100" height="50" as="geometry" />
        </mxCell>
      </root>
    </mxGraphModel>
  </diagram>
</mxfile>
